# Blender v2.78 (sub 0) OBJ File: ''
# www.blender.org
mtllib CATEARSOMGAH.mtl
o black_cats_ears_mesh_black_cats_ears
v 0.083521 1.392910 0.021523
v 0.136161 1.398510 0.031603
v 0.132801 1.405230 0.024883
v 0.163041 1.408590 0.026003
v 0.159681 1.402990 0.028243
v 0.091361 1.377230 0.034963
v 0.141761 1.394030 0.027123
v 0.102561 1.366030 0.027123
v 0.030881 1.368270 0.014803
v 0.045441 1.344750 0.034963
v 0.145121 1.390670 0.012563
v 0.156321 1.381710 0.020403
v 0.163041 1.408590 0.026003
v 0.061121 1.325710 0.027123
v 0.015201 1.316750 0.030483
v -0.002719 1.343630 0.010323
v 0.160801 1.380589 0.015923
v 0.152961 1.346990 0.012563
v 0.138401 1.357070 0.003603
v -0.045279 1.303310 0.004723
v 0.158561 1.346990 0.006963
v 0.149601 1.307790 0.004723
v -0.026239 1.269710 0.026003
v 0.157441 1.305550 -0.000877
v 0.135041 1.318990 -0.003117
v 0.127201 1.286510 -0.007597
v 0.146241 1.270830 0.000243
v 0.111521 1.341390 -0.007597
v 0.152961 1.268590 -0.005357
v 0.111521 1.256270 -0.012077
v 0.083521 1.293230 -0.017677
v 0.133921 1.234990 -0.001997
v 0.140641 1.231630 -0.008717
v 0.090241 1.223790 -0.016557
v 0.061121 1.261870 -0.018797
v 0.112641 1.195790 -0.004237
v 0.118241 1.191310 -0.012077
v 0.029761 1.303310 -0.008717
v 0.025281 1.215950 -0.018797
v 0.074561 1.145390 -0.006477
v 0.053281 1.177870 -0.018797
v 0.080161 1.139790 -0.015437
v -0.008319 1.257390 -0.012077
v -0.002719 1.243950 0.020403
v 0.033121 1.294350 0.023763
v 0.055521 1.330190 -0.005357
v 0.099201 1.364910 0.002483
v 0.023041 1.229390 -0.093837
v 0.092481 1.229390 -0.070317
v 0.056641 1.185710 -0.078157
v 0.080161 1.139790 -0.015437
v 0.118241 1.191310 -0.012077
v 0.140641 1.231630 -0.008717
v 0.060001 1.274190 -0.084877
v 0.117121 1.262990 -0.057997
v 0.084641 1.302190 -0.071437
v 0.133921 1.290990 -0.045677
v 0.152961 1.268590 -0.005357
v 0.117121 1.349230 -0.040077
v 0.054401 1.341390 -0.059117
v 0.157441 1.305550 -0.000877
v 0.145121 1.320110 -0.032237
v 0.151841 1.350350 -0.014317
v 0.158561 1.346990 0.006963
v 0.099201 1.373870 -0.031117
v 0.140641 1.399630 0.004723
v 0.148481 1.388430 0.000243
v 0.157441 1.381710 0.004723
v 0.133921 1.405230 0.013683
v 0.163041 1.408590 0.026003
v 0.160801 1.380589 0.015923
v 0.132801 1.405230 0.024883
v 0.086881 1.390670 -0.004237
v 0.083521 1.392910 0.021523
v 0.035361 1.366030 -0.021037
v 0.030881 1.368270 0.014803
v 0.000641 1.341390 -0.029997
v -0.002719 1.343630 0.010323
v 0.024161 1.315630 -0.072557
v -0.045279 1.303310 0.004723
v -0.037439 1.299950 -0.036717
v -0.012799 1.274190 -0.080397
v -0.299519 1.405230 0.024883
v -0.302879 1.398510 0.031603
v -0.250239 1.392910 0.021523
v -0.329759 1.408590 0.026003
v -0.326399 1.402990 0.028243
v -0.258079 1.377230 0.034963
v -0.308479 1.394030 0.027123
v -0.269279 1.366030 0.027123
v -0.212159 1.344750 0.034963
v -0.311839 1.390670 0.012563
v -0.197599 1.368270 0.014803
v -0.227839 1.325710 0.027123
v -0.181919 1.316750 0.030483
v -0.265919 1.364910 0.002483
v -0.222239 1.330190 -0.005357
v -0.199839 1.294350 0.023763
v -0.278239 1.341390 -0.007597
v -0.163999 1.343630 0.010323
v -0.250239 1.293230 -0.017677
v -0.196479 1.303310 -0.008717
v -0.140479 1.269710 0.026003
v -0.163999 1.243950 0.020403
v -0.121439 1.303310 0.004723
v -0.293919 1.286510 -0.007597
v -0.278239 1.256270 -0.012077
v -0.227839 1.261870 -0.018797
v -0.158399 1.257390 -0.012077
v -0.191999 1.215950 -0.018797
v -0.256959 1.223790 -0.016557
v -0.312959 1.270830 0.000243
v -0.300639 1.234990 -0.001997
v -0.219999 1.177870 -0.018797
v -0.241279 1.145390 -0.006477
v -0.279359 1.195790 -0.004237
v -0.319679 1.268590 -0.005357
v -0.307359 1.231630 -0.008717
v -0.246879 1.139790 -0.015437
v -0.284959 1.191310 -0.012077
v -0.324159 1.305550 -0.000877
v -0.316319 1.307790 0.004723
v -0.325279 1.346990 0.006963
v -0.319679 1.346990 0.012563
v -0.301759 1.318990 -0.003117
v -0.305119 1.357070 0.003603
v -0.327519 1.380589 0.015923
v -0.323039 1.381710 0.020403
v -0.329759 1.408590 0.026003
v -0.223359 1.185710 -0.078157
v -0.259199 1.229390 -0.070317
v -0.189759 1.229390 -0.093837
v -0.246879 1.139790 -0.015437
v -0.284959 1.191310 -0.012077
v -0.307359 1.231630 -0.008717
v -0.226719 1.274190 -0.084877
v -0.283839 1.262990 -0.057997
v -0.251359 1.302190 -0.071437
v -0.300639 1.290990 -0.045677
v -0.319679 1.268590 -0.005357
v -0.283839 1.349230 -0.040077
v -0.221119 1.341390 -0.059117
v -0.311839 1.320110 -0.032237
v -0.324159 1.305550 -0.000877
v -0.318559 1.350350 -0.014317
v -0.315199 1.388430 0.000243
v -0.307359 1.399630 0.004723
v -0.265919 1.373870 -0.031117
v -0.325279 1.346990 0.006963
v -0.324159 1.381710 0.004723
v -0.329759 1.408590 0.026003
v -0.300639 1.405230 0.013683
v -0.327519 1.380589 0.015923
v -0.299519 1.405230 0.024883
v -0.253599 1.390670 -0.004237
v -0.250239 1.392910 0.021523
v -0.202079 1.366030 -0.021037
v -0.197599 1.368270 0.014803
v -0.167359 1.341390 -0.029997
v -0.163999 1.343630 0.010323
v -0.121439 1.303310 0.004723
v -0.129279 1.299950 -0.036717
v -0.190879 1.315630 -0.072557
v -0.153919 1.274190 -0.080397
vt 0.1020 -0.6660
vt 0.1790 -0.8170
vt 0.1630 -0.8390
vt 0.2060 -0.9260
vt 0.2080 -0.8960
vt 0.1370 -0.6380
vt 0.1940 -0.8150
vt 0.1670 -0.6270
vt 0.0480 -0.4660
vt 0.1030 -0.4280
vt 0.2190 -0.8000
vt 0.2430 -0.8390
vt 0.2080 -0.9260
vt 0.1470 -0.4070
vt 0.0910 -0.2870
vt 0.0240 -0.3230
vt 0.2520 -0.8560
vt 0.2910 -0.7410
vt 0.2590 -0.7050
vt 0.0060 -0.1790
vt 0.3010 -0.7610
vt 0.3470 -0.6190
vt 0.0800 -0.1250
vt 0.3630 -0.6380
vt 0.3100 -0.5970
vt 0.3430 -0.4910
vt 0.3890 -0.5050
vt 0.2530 -0.5760
vt 0.4060 -0.5200
vt 0.3630 -0.3730
vt 0.2760 -0.3760
vt 0.4210 -0.3830
vt 0.4370 -0.3940
vt 0.3800 -0.2510
vt 0.2850 -0.2610
vt 0.4450 -0.2510
vt 0.4640 -0.2590
vt 0.2040 -0.2710
vt 0.2950 -0.1330
vt 0.4610 -0.1040
vt 0.3900 -0.1230
vt 0.4830 -0.1100
vt 0.2070 -0.1270
vt 0.1410 -0.1010
vt 0.1430 -0.2580
vt 0.2020 -0.3940
vt 0.2070 -0.6010
vt 0.7350 -0.1210
vt 0.6430 -0.2230
vt 0.6380 -0.1000
vt 0.4980 -0.1130
vt 0.5200 -0.2600
vt 0.5490 -0.3940
vt 0.7360 -0.2490
vt 0.6520 -0.3520
vt 0.7360 -0.3650
vt 0.6620 -0.4660
vt 0.5820 -0.5150
vt 0.7430 -0.5730
vt 0.8130 -0.4120
vt 0.6200 -0.6270
vt 0.6770 -0.5730
vt 0.6990 -0.6870
vt 0.6700 -0.7490
vt 0.7920 -0.6100
vt 0.7690 -0.8110
vt 0.7470 -0.7930
vt 0.7250 -0.8070
vt 0.7890 -0.8320
vt 0.7530 -0.9230
vt 0.7150 -0.8440
vt 0.8010 -0.8640
vt 0.8360 -0.6770
vt 0.8700 -0.7370
vt 0.8810 -0.4970
vt 0.9320 -0.5690
vt 0.9030 -0.3750
vt 0.9630 -0.4480
vt 0.8240 -0.2950
vt 0.9910 -0.3210
vt 0.9240 -0.2530
vt 0.8320 -0.1780
vt 0.1630 -0.8390
vt 0.1790 -0.8170
vt 0.1020 -0.6660
vt 0.2060 -0.9260
vt 0.2080 -0.8960
vt 0.1370 -0.6380
vt 0.1940 -0.8150
vt 0.1670 -0.6270
vt 0.1030 -0.4280
vt 0.2190 -0.8000
vt 0.0480 -0.4660
vt 0.1470 -0.4070
vt 0.0910 -0.2870
vt 0.2070 -0.6010
vt 0.2020 -0.3940
vt 0.1430 -0.2580
vt 0.2530 -0.5760
vt 0.0240 -0.3230
vt 0.2760 -0.3760
vt 0.2040 -0.2710
vt 0.0800 -0.1250
vt 0.1410 -0.1010
vt 0.0060 -0.1790
vt 0.3430 -0.4910
vt 0.3630 -0.3730
vt 0.2850 -0.2610
vt 0.2070 -0.1270
vt 0.2950 -0.1330
vt 0.3800 -0.2510
vt 0.3890 -0.5050
vt 0.4210 -0.3830
vt 0.3900 -0.1230
vt 0.4610 -0.1040
vt 0.4450 -0.2510
vt 0.4060 -0.5200
vt 0.4370 -0.3940
vt 0.4830 -0.1100
vt 0.4640 -0.2590
vt 0.3630 -0.6380
vt 0.3470 -0.6190
vt 0.3010 -0.7610
vt 0.2910 -0.7410
vt 0.3100 -0.5970
vt 0.2590 -0.7050
vt 0.2520 -0.8560
vt 0.2430 -0.8390
vt 0.2080 -0.9260
vt 0.6380 -0.1000
vt 0.6430 -0.2230
vt 0.7350 -0.1210
vt 0.4980 -0.1130
vt 0.5200 -0.2600
vt 0.5490 -0.3940
vt 0.7360 -0.2490
vt 0.6520 -0.3520
vt 0.7360 -0.3650
vt 0.6620 -0.4660
vt 0.5820 -0.5150
vt 0.7430 -0.5730
vt 0.8130 -0.4120
vt 0.6770 -0.5730
vt 0.6200 -0.6270
vt 0.6990 -0.6870
vt 0.7470 -0.7930
vt 0.7690 -0.8110
vt 0.7920 -0.6100
vt 0.6700 -0.7490
vt 0.7250 -0.8070
vt 0.7530 -0.9230
vt 0.7890 -0.8320
vt 0.7150 -0.8440
vt 0.8010 -0.8640
vt 0.8360 -0.6770
vt 0.8700 -0.7370
vt 0.8810 -0.4970
vt 0.9320 -0.5690
vt 0.9030 -0.3750
vt 0.9630 -0.4480
vt 0.9910 -0.3210
vt 0.9240 -0.2530
vt 0.8240 -0.2950
vt 0.8320 -0.1780
vn -0.2869 0.5361 0.7939
vn 0.0648 0.1481 0.9869
vn -0.1649 0.6550 0.7374
vn 0.0127 0.4596 0.8880
vn 0.4191 -0.1730 0.8913
vn -0.0336 0.1207 0.9921
vn 0.3932 -0.6962 0.6005
vn 0.4888 -0.6936 0.5291
vn -0.3861 0.4322 0.8149
vn -0.1432 0.1081 0.9838
vn -0.0779 -0.6380 0.7661
vn 0.0100 -0.2613 0.9652
vn 0.7821 -0.3083 0.5415
vn 0.5874 -0.6142 0.5270
vn -0.1778 0.0891 0.9800
vn -0.4087 0.3573 0.8398
vn 0.6524 -0.2579 0.7127
vn 0.0702 -0.2154 0.9740
vn -0.4334 -0.1492 0.8888
vn -0.4301 0.3117 0.8473
vn 0.6804 -0.2107 0.7019
vn 0.0372 -0.1298 0.9908
vn -0.1598 0.0469 0.9860
vn 0.5478 -0.1598 0.8212
vn -0.3993 -0.0792 0.9134
vn -0.3279 -0.0296 0.9442
vn 0.1534 -0.1194 0.9809
vn -0.1003 -0.2317 0.9676
vn 0.5870 -0.2126 0.7812
vn -0.2617 0.0312 0.9646
vn -0.0430 -0.1050 0.9935
vn 0.1650 -0.1360 0.9769
vn 0.5927 -0.3178 0.7401
vn -0.2026 0.0668 0.9770
vn 0.0264 -0.0534 0.9982
vn 0.1914 -0.1754 0.9657
vn 0.5951 -0.4367 0.6746
vn 0.6359 -0.5675 0.5230
vn 0.0226 -0.0508 0.9985
vn 0.2581 -0.2337 0.9374
vn -0.1776 0.0952 0.9795
vn 0.5834 -0.4708 0.6618
vn 0.6315 -0.5627 0.5334
vn 0.6610 -0.5679 0.4905
vn 0.6375 -0.5560 0.5333
vn 0.5592 -0.6495 0.5152
vn 0.3958 -0.7399 0.5440
vn 0.1600 0.0585 -0.9854
vn 0.5637 -0.2253 -0.7946
vn 0.5429 -0.3050 -0.7825
vn 0.6705 -0.4524 -0.5880
vn 0.6998 -0.4154 -0.5811
vn 0.7760 -0.3058 -0.5517
vn 0.2054 0.1468 -0.9676
vn 0.6394 -0.1239 -0.7588
vn 0.3135 0.2525 -0.9154
vn 0.7094 -0.0057 -0.7048
vn 0.8565 -0.1569 -0.4917
vn 0.3913 0.3892 -0.8339
vn -0.0627 0.6025 -0.7957
vn 0.9163 -0.0452 -0.3978
vn 0.7552 0.0967 -0.6484
vn 0.8009 0.1862 -0.5691
vn 0.9547 0.0205 -0.2967
vn 0.0758 0.6806 -0.7287
vn 0.2045 0.7345 -0.6471
vn 0.4916 0.4623 -0.7380
vn 0.8251 0.2048 -0.5266
vn -0.0879 0.9544 -0.2853
vn 0.4664 0.7123 -0.5245
vn 0.9582 0.0201 -0.2854
vn -0.1778 0.9839 -0.0178
vn -0.2322 0.9050 -0.3564
vn -0.3263 0.9384 -0.1133
vn -0.3895 0.8392 -0.3795
vn -0.4886 0.8658 -0.1082
vn -0.5519 0.7362 -0.3917
vn -0.6282 0.7722 -0.0953
vn -0.2195 0.5031 -0.8359
vn -0.6968 0.7008 -0.1530
vn -0.6254 0.6464 -0.4371
vn -0.2796 0.4133 -0.8666
vn 0.1649 0.6550 0.7374
vn -0.0648 0.1481 0.9869
vn 0.2869 0.5361 0.7939
vn -0.0127 0.4596 0.8880
vn -0.4191 -0.1730 0.8913
vn 0.0336 0.1207 0.9921
vn -0.3932 -0.6962 0.6005
vn -0.4888 -0.6936 0.5291
vn 0.1432 0.1081 0.9838
vn 0.0779 -0.6380 0.7661
vn 0.3861 0.4322 0.8149
vn -0.5874 -0.6142 0.5270
vn 0.1778 0.0891 0.9800
vn -0.3958 -0.7399 0.5440
vn -0.5592 -0.6495 0.5152
vn -0.6375 -0.5560 0.5333
vn 0.1003 -0.2317 0.9676
vn 0.4087 0.3573 0.8398
vn 0.0430 -0.1050 0.9935
vn -0.6359 -0.5675 0.5230
vn 0.1598 0.0469 0.9860
vn -0.6610 -0.5679 0.4905
vn 0.4301 0.3117 0.8473
vn 0.3279 -0.0296 0.9442
vn 0.2617 0.0312 0.9646
vn -0.0264 -0.0534 0.9982
vn -0.6315 -0.5627 0.5334
vn -0.0226 -0.0508 0.9985
vn 0.2026 0.0668 0.9770
vn -0.1534 -0.1194 0.9809
vn -0.1650 -0.1360 0.9769
vn 0.1776 0.0952 0.9795
vn -0.2581 -0.2337 0.9374
vn -0.1914 -0.1754 0.9657
vn -0.5870 -0.2126 0.7812
vn -0.5927 -0.3178 0.7401
vn -0.5834 -0.4708 0.6618
vn -0.5951 -0.4367 0.6746
vn -0.5478 -0.1598 0.8212
vn -0.0372 -0.1298 0.9908
vn -0.6804 -0.2107 0.7019
vn -0.0702 -0.2154 0.9740
vn 0.3993 -0.0792 0.9134
vn 0.4334 -0.1492 0.8888
vn -0.6524 -0.2579 0.7127
vn -0.0100 -0.2613 0.9652
vn -0.7821 -0.3083 0.5415
vn -0.5429 -0.3050 -0.7825
vn -0.5637 -0.2253 -0.7946
vn -0.1600 0.0585 -0.9854
vn -0.6705 -0.4524 -0.5880
vn -0.6998 -0.4154 -0.5811
vn -0.7760 -0.3058 -0.5517
vn -0.2054 0.1468 -0.9676
vn -0.6394 -0.1239 -0.7588
vn -0.3135 0.2525 -0.9154
vn -0.7094 -0.0057 -0.7048
vn -0.8565 -0.1569 -0.4917
vn -0.3913 0.3892 -0.8339
vn 0.0627 0.6025 -0.7957
vn -0.7552 0.0967 -0.6484
vn -0.9163 -0.0452 -0.3978
vn -0.8009 0.1862 -0.5691
vn -0.4917 0.4623 -0.7380
vn -0.2045 0.7345 -0.6471
vn -0.0758 0.6806 -0.7287
vn -0.9547 0.0205 -0.2967
vn -0.8251 0.2048 -0.5266
vn -0.4664 0.7123 -0.5245
vn 0.0879 0.9544 -0.2853
vn -0.9582 0.0201 -0.2854
vn 0.1778 0.9839 -0.0178
vn 0.2322 0.9050 -0.3564
vn 0.3263 0.9384 -0.1133
vn 0.3895 0.8392 -0.3795
vn 0.4886 0.8658 -0.1082
vn 0.5519 0.7362 -0.3917
vn 0.6282 0.7722 -0.0953
vn 0.6968 0.7008 -0.1530
vn 0.6254 0.6464 -0.4371
vn 0.2195 0.5031 -0.8359
vn 0.2796 0.4133 -0.8666
usemtl Material.002
s 1
f 1/1/1 2/2/2 3/3/3
f 3/3/3 2/2/2 4/4/4
f 4/4/4 2/2/2 5/5/5
f 6/6/6 2/2/2 1/1/1
f 5/5/5 2/2/2 7/7/7
f 7/7/7 2/2/2 8/8/8
f 8/8/8 2/2/2 6/6/6
f 9/9/9 10/10/10 1/1/1
f 6/6/6 10/10/10 8/8/8
f 1/1/1 10/10/10 6/6/6
f 8/8/8 11/11/11 7/7/7
f 11/11/11 5/5/5 7/7/7
f 5/5/5 11/11/11 12/12/12
f 12/12/12 13/13/13 5/5/5
f 8/8/8 10/10/10 14/14/14
f 9/9/9 15/15/15 10/10/10
f 10/10/10 15/15/15 14/14/14
f 16/16/16 15/15/15 9/9/9
f 17/17/17 13/13/13 12/12/12
f 12/12/12 18/18/18 17/17/17
f 11/11/11 19/19/19 12/12/12
f 12/12/12 19/19/19 18/18/18
f 20/20/20 15/15/15 16/16/16
f 17/17/17 18/18/18 21/21/21
f 22/22/22 21/21/21 18/18/18
f 18/18/18 19/19/19 22/22/22
f 23/23/23 15/15/15 20/20/20
f 24/24/24 21/21/21 22/22/22
f 22/22/22 19/19/19 25/25/25
f 25/25/25 26/26/26 22/22/22
f 22/22/22 26/26/26 27/27/27
f 22/22/22 27/27/27 24/24/24
f 28/28/28 26/26/26 25/25/25
f 25/25/25 19/19/19 28/28/28
f 24/24/24 27/27/27 29/29/29
f 30/30/30 27/27/27 26/26/26
f 31/31/31 26/26/26 28/28/28
f 30/30/30 26/26/26 31/31/31
f 32/32/32 29/29/29 27/27/27
f 32/32/32 27/27/27 30/30/30
f 33/33/33 29/29/29 32/32/32
f 30/30/30 34/34/34 32/32/32
f 31/31/31 35/35/35 30/30/30
f 30/30/30 35/35/35 34/34/34
f 32/32/32 34/34/34 36/36/36
f 32/32/32 36/36/36 33/33/33
f 33/33/33 36/36/36 37/37/37
f 35/35/35 38/38/38 39/39/39
f 31/31/31 38/38/38 35/35/35
f 39/39/39 34/34/34 35/35/35
f 36/36/36 34/34/34 40/40/40
f 40/40/40 34/34/34 41/41/41
f 41/41/41 34/34/34 39/39/39
f 37/37/37 36/36/36 42/42/42
f 42/42/42 36/36/36 40/40/40
f 39/39/39 38/38/38 43/43/43
f 43/43/43 38/38/38 44/44/44
f 44/44/44 38/38/38 45/45/45
f 46/46/46 38/38/38 31/31/31
f 46/46/46 45/45/45 38/38/38
f 45/45/45 15/15/15 44/44/44
f 14/14/14 15/15/15 45/45/45
f 14/14/14 45/45/45 46/46/46
f 44/44/44 15/15/15 23/23/23
f 28/28/28 46/46/46 31/31/31
f 14/14/14 46/46/46 8/8/8
f 8/8/8 46/46/46 47/47/47
f 47/47/47 46/46/46 28/28/28
f 47/47/47 11/11/11 8/8/8
f 28/28/28 11/11/11 47/47/47
f 28/28/28 19/19/19 11/11/11
f 48/48/48 49/49/49 50/50/50
f 50/50/50 49/49/49 51/51/51
f 51/51/51 49/49/49 52/52/52
f 52/52/52 49/49/49 53/53/53
f 54/54/54 49/49/49 48/48/48
f 53/53/53 49/49/49 55/55/55
f 55/55/55 49/49/49 56/56/56
f 56/56/56 49/49/49 54/54/54
f 55/55/55 56/56/56 57/57/57
f 55/55/55 57/57/57 53/53/53
f 53/53/53 57/57/57 58/58/58
f 59/59/59 57/57/57 56/56/56
f 56/56/56 60/60/60 59/59/59
f 56/56/56 54/54/54 60/60/60
f 58/58/58 57/57/57 61/61/61
f 61/61/61 57/57/57 62/62/62
f 62/62/62 57/57/57 59/59/59
f 62/62/62 63/63/63 61/61/61
f 59/59/59 63/63/63 62/62/62
f 61/61/61 63/63/63 64/64/64
f 65/65/65 66/66/66 59/59/59
f 59/59/59 60/60/60 65/65/65
f 59/59/59 66/66/66 67/67/67
f 67/67/67 63/63/63 59/59/59
f 68/68/68 63/63/63 67/67/67
f 68/68/68 64/64/64 63/63/63
f 65/65/65 69/69/69 66/66/66
f 66/66/66 69/69/69 70/70/70
f 68/68/68 67/67/67 70/70/70
f 67/67/67 66/66/66 70/70/70
f 71/71/71 64/64/64 68/68/68
f 68/68/68 70/70/70 71/71/71
f 72/72/72 70/70/70 69/69/69
f 73/73/73 69/69/69 65/65/65
f 72/72/72 69/69/69 74/74/74
f 74/74/74 69/69/69 73/73/73
f 60/60/60 75/75/75 65/65/65
f 73/73/73 75/75/75 74/74/74
f 65/65/65 75/75/75 73/73/73
f 74/74/74 75/75/75 76/76/76
f 75/75/75 77/77/77 76/76/76
f 60/60/60 77/77/77 75/75/75
f 76/76/76 77/77/77 78/78/78
f 60/60/60 54/54/54 79/79/79
f 79/79/79 77/77/77 60/60/60
f 78/78/78 77/77/77 80/80/80
f 80/80/80 77/77/77 81/81/81
f 79/79/79 81/81/81 77/77/77
f 48/48/48 79/79/79 54/54/54
f 82/82/82 79/79/79 48/48/48
f 82/82/82 81/81/81 79/79/79
f 83/83/83 84/84/84 85/85/85
f 86/86/86 84/84/84 83/83/83
f 87/87/87 84/84/84 86/86/86
f 85/85/85 84/84/84 88/88/88
f 87/87/87 89/89/89 84/84/84
f 88/88/88 84/84/84 90/90/90
f 90/90/90 84/84/84 89/89/89
f 90/90/90 91/91/91 88/88/88
f 88/88/88 91/91/91 85/85/85
f 89/89/89 92/92/92 90/90/90
f 92/92/92 89/89/89 87/87/87
f 85/85/85 91/91/91 93/93/93
f 94/94/94 91/91/91 90/90/90
f 91/91/91 95/95/95 93/93/93
f 94/94/94 95/95/95 91/91/91
f 90/90/90 92/92/92 96/96/96
f 96/96/96 97/97/97 90/90/90
f 90/90/90 97/97/97 94/94/94
f 98/98/98 95/95/95 94/94/94
f 97/97/97 98/98/98 94/94/94
f 99/99/99 96/96/96 92/92/92
f 99/99/99 97/97/97 96/96/96
f 93/93/93 95/95/95 100/100/100
f 101/101/101 97/97/97 99/99/99
f 101/101/101 102/102/102 97/97/97
f 102/102/102 98/98/98 97/97/97
f 103/103/103 95/95/95 104/104/104
f 104/104/104 95/95/95 98/98/98
f 98/98/98 102/102/102 104/104/104
f 100/100/100 95/95/95 105/105/105
f 105/105/105 95/95/95 103/103/103
f 101/101/101 99/99/99 106/106/106
f 107/107/107 101/101/101 106/106/106
f 108/108/108 102/102/102 101/101/101
f 107/107/107 108/108/108 101/101/101
f 109/109/109 102/102/102 110/110/110
f 104/104/104 102/102/102 109/109/109
f 110/110/110 102/102/102 108/108/108
f 108/108/108 111/111/111 110/110/110
f 111/111/111 108/108/108 107/107/107
f 106/106/106 112/112/112 107/107/107
f 107/107/107 112/112/112 113/113/113
f 113/113/113 111/111/111 107/107/107
f 110/110/110 111/111/111 114/114/114
f 114/114/114 111/111/111 115/115/115
f 115/115/115 111/111/111 116/116/116
f 116/116/116 111/111/111 113/113/113
f 112/112/112 117/117/117 113/113/113
f 113/113/113 117/117/117 118/118/118
f 118/118/118 116/116/116 113/113/113
f 115/115/115 116/116/116 119/119/119
f 119/119/119 116/116/116 120/120/120
f 120/120/120 116/116/116 118/118/118
f 117/117/117 112/112/112 121/121/121
f 122/122/122 123/123/123 121/121/121
f 121/121/121 112/112/112 122/122/122
f 112/112/112 106/106/106 122/122/122
f 124/124/124 123/123/123 122/122/122
f 125/125/125 126/126/126 122/122/122
f 122/122/122 106/106/106 125/125/125
f 122/122/122 126/126/126 124/124/124
f 99/99/99 125/125/125 106/106/106
f 125/125/125 99/99/99 126/126/126
f 123/123/123 124/124/124 127/127/127
f 127/127/127 124/124/124 128/128/128
f 124/124/124 126/126/126 128/128/128
f 99/99/99 92/92/92 126/126/126
f 128/128/128 126/126/126 92/92/92
f 128/128/128 129/129/129 127/127/127
f 87/87/87 128/128/128 92/92/92
f 87/87/87 129/129/129 128/128/128
f 130/130/130 131/131/131 132/132/132
f 133/133/133 131/131/131 130/130/130
f 134/134/134 131/131/131 133/133/133
f 135/135/135 131/131/131 134/134/134
f 132/132/132 131/131/131 136/136/136
f 137/137/137 131/131/131 135/135/135
f 136/136/136 131/131/131 138/138/138
f 138/138/138 131/131/131 137/137/137
f 137/137/137 139/139/139 138/138/138
f 135/135/135 139/139/139 137/137/137
f 140/140/140 139/139/139 135/135/135
f 141/141/141 138/138/138 139/139/139
f 141/141/141 142/142/142 138/138/138
f 142/142/142 136/136/136 138/138/138
f 143/143/143 139/139/139 144/144/144
f 143/143/143 141/141/141 139/139/139
f 144/144/144 139/139/139 140/140/140
f 144/144/144 145/145/145 143/143/143
f 141/141/141 143/143/143 145/145/145
f 146/146/146 147/147/147 141/141/141
f 146/146/146 141/141/141 145/145/145
f 141/141/141 147/147/147 148/148/148
f 148/148/148 142/142/142 141/141/141
f 149/149/149 145/145/145 144/144/144
f 150/150/150 146/146/146 145/145/145
f 145/145/145 149/149/149 150/150/150
f 150/150/150 151/151/151 146/146/146
f 146/146/146 151/151/151 147/147/147
f 147/147/147 152/152/152 148/148/148
f 147/147/147 151/151/151 152/152/152
f 150/150/150 149/149/149 153/153/153
f 150/150/150 153/153/153 151/151/151
f 154/154/154 152/152/152 151/151/151
f 148/148/148 152/152/152 155/155/155
f 155/155/155 152/152/152 156/156/156
f 156/156/156 152/152/152 154/154/154
f 156/156/156 157/157/157 155/155/155
f 155/155/155 157/157/157 148/148/148
f 158/158/158 157/157/157 156/156/156
f 158/158/158 159/159/159 157/157/157
f 148/148/148 157/157/157 142/142/142
f 157/157/157 159/159/159 142/142/142
f 160/160/160 159/159/159 158/158/158
f 161/161/161 159/159/159 160/160/160
f 162/162/162 159/159/159 161/161/161
f 159/159/159 162/162/162 163/163/163
f 142/142/142 159/159/159 163/163/163
f 163/163/163 136/136/136 142/142/142
f 163/163/163 162/162/162 164/164/164
f 136/136/136 163/163/163 132/132/132
f 132/132/132 163/163/163 164/164/164
